<svg id="visual" viewBox="0 0 1920 1080" width="1920" height="1080" xmlns="http://www.w3.org/2000/svg" xmlns:xlink="http://www.w3.org/1999/xlink" version="1.1"><path d="M0 884L45.7 883.2C91.3 882.3 182.7 880.7 274.2 872.3C365.7 864 457.3 849 548.8 852.5C640.3 856 731.7 878 823 898.8C914.3 919.7 1005.7 939.3 1097 942.7C1188.3 946 1279.7 933 1371.2 915.2C1462.7 897.3 1554.3 874.7 1645.8 879.5C1737.3 884.3 1828.7 916.7 1874.3 932.8L1920 949L1920 1081L1874.3 1081C1828.7 1081 1737.3 1081 1645.8 1081C1554.3 1081 1462.7 1081 1371.2 1081C1279.7 1081 1188.3 1081 1097 1081C1005.7 1081 914.3 1081 823 1081C731.7 1081 640.3 1081 548.8 1081C457.3 1081 365.7 1081 274.2 1081C182.7 1081 91.3 1081 45.7 1081L0 1081Z" fill="#af1de0"></path><path d="M0 940L45.7 948.5C91.3 957 182.7 974 274.2 973.3C365.7 972.7 457.3 954.3 548.8 940.8C640.3 927.3 731.7 918.7 823 922.7C914.3 926.7 1005.7 943.3 1097 955.2C1188.3 967 1279.7 974 1371.2 972.3C1462.7 970.7 1554.3 960.3 1645.8 961.5C1737.3 962.7 1828.7 975.3 1874.3 981.7L1920 988L1920 1081L1874.3 1081C1828.7 1081 1737.3 1081 1645.8 1081C1554.3 1081 1462.7 1081 1371.2 1081C1279.7 1081 1188.3 1081 1097 1081C1005.7 1081 914.3 1081 823 1081C731.7 1081 640.3 1081 548.8 1081C457.3 1081 365.7 1081 274.2 1081C182.7 1081 91.3 1081 45.7 1081L0 1081Z" fill="#6126b6"></path><path d="M0 960L45.7 969.8C91.3 979.7 182.7 999.3 274.2 1008C365.7 1016.7 457.3 1014.3 548.8 1013C640.3 1011.7 731.7 1011.3 823 1013.7C914.3 1016 1005.7 1021 1097 1014.8C1188.3 1008.7 1279.7 991.3 1371.2 983C1462.7 974.7 1554.3 975.3 1645.8 978.2C1737.3 981 1828.7 986 1874.3 988.5L1920 991L1920 1081L1874.3 1081C1828.7 1081 1737.3 1081 1645.8 1081C1554.3 1081 1462.7 1081 1371.2 1081C1279.7 1081 1188.3 1081 1097 1081C1005.7 1081 914.3 1081 823 1081C731.7 1081 640.3 1081 548.8 1081C457.3 1081 365.7 1081 274.2 1081C182.7 1081 91.3 1081 45.7 1081L0 1081Z" fill="#0b1e86"></path></svg>