<svg id="visual" viewBox="0 0 900 120" width="900" height="120" xmlns="http://www.w3.org/2000/svg" xmlns:xlink="http://www.w3.org/1999/xlink" version="1.1"><path d="M0 25L21.5 29.7C43 34.3 86 43.7 128.8 45.2C171.7 46.7 214.3 40.3 257.2 39.3C300 38.3 343 42.7 385.8 46.3C428.7 50 471.3 53 514.2 49.8C557 46.7 600 37.3 642.8 36.8C685.7 36.3 728.3 44.7 771.2 46.2C814 47.7 857 42.3 878.5 39.7L900 37L900 121L878.5 121C857 121 814 121 771.2 121C728.3 121 685.7 121 642.8 121C600 121 557 121 514.2 121C471.3 121 428.7 121 385.8 121C343 121 300 121 257.2 121C214.3 121 171.7 121 128.8 121C86 121 43 121 21.5 121L0 121Z" fill="#af1de0"></path><path d="M0 70L21.5 71.7C43 73.3 86 76.7 128.8 74.3C171.7 72 214.3 64 257.2 64.5C300 65 343 74 385.8 73.7C428.7 73.3 471.3 63.7 514.2 60C557 56.3 600 58.7 642.8 61.3C685.7 64 728.3 67 771.2 71.7C814 76.3 857 82.7 878.5 85.8L900 89L900 121L878.5 121C857 121 814 121 771.2 121C728.3 121 685.7 121 642.8 121C600 121 557 121 514.2 121C471.3 121 428.7 121 385.8 121C343 121 300 121 257.2 121C214.3 121 171.7 121 128.8 121C86 121 43 121 21.5 121L0 121Z" fill="#6126b6"></path><path d="M0 75L21.5 79.3C43 83.7 86 92.3 128.8 96.8C171.7 101.3 214.3 101.7 257.2 97.8C300 94 343 86 385.8 81.5C428.7 77 471.3 76 514.2 79C557 82 600 89 642.8 91.8C685.7 94.7 728.3 93.3 771.2 94.3C814 95.3 857 98.7 878.5 100.3L900 102L900 121L878.5 121C857 121 814 121 771.2 121C728.3 121 685.7 121 642.8 121C600 121 557 121 514.2 121C471.3 121 428.7 121 385.8 121C343 121 300 121 257.2 121C214.3 121 171.7 121 128.8 121C86 121 43 121 21.5 121L0 121Z" fill="#0b1e86"></path></svg>