<svg id="visual" viewBox="0 0 900 600" width="900" height="600" xmlns="http://www.w3.org/2000/svg" xmlns:xlink="http://www.w3.org/1999/xlink" version="1.1"><path d="M0 115L30 115C60 115 120 115 180 109C240 103 300 91 360 85C420 79 480 79 540 78C600 77 660 75 720 78C780 81 840 89 870 93L900 97L900 0L870 0C840 0 780 0 720 0C660 0 600 0 540 0C480 0 420 0 360 0C300 0 240 0 180 0C120 0 60 0 30 0L0 0Z" fill="#af1de0"></path><path d="M0 283L30 282C60 281 120 279 180 278C240 277 300 277 360 269C420 261 480 245 540 245C600 245 660 261 720 269C780 277 840 277 870 277L900 277L900 95L870 91C840 87 780 79 720 76C660 73 600 75 540 76C480 77 420 77 360 83C300 89 240 101 180 107C120 113 60 113 30 113L0 113Z" fill="#7a26c5"></path><path d="M0 421L30 413C60 405 120 389 180 384C240 379 300 385 360 380C420 375 480 359 540 357C600 355 660 367 720 380C780 393 840 407 870 414L900 421L900 275L870 275C840 275 780 275 720 267C660 259 600 243 540 243C480 243 420 259 360 267C300 275 240 275 180 276C120 277 60 279 30 280L0 281Z" fill="#4824a7"></path><path d="M0 601L30 601C60 601 120 601 180 601C240 601 300 601 360 601C420 601 480 601 540 601C600 601 660 601 720 601C780 601 840 601 870 601L900 601L900 419L870 412C840 405 780 391 720 378C660 365 600 353 540 355C480 357 420 373 360 378C300 383 240 377 180 382C120 387 60 403 30 411L0 419Z" fill="#0b1e86"></path></svg>