<svg id="visual" viewBox="0 0 900 600" width="900" height="600" xmlns="http://www.w3.org/2000/svg" xmlns:xlink="http://www.w3.org/1999/xlink" version="1.1"><path d="M0 133L30 123C60 113 120 93 180 85C240 77 300 81 360 84C420 87 480 89 540 92C600 95 660 99 720 100C780 101 840 99 870 98L900 97L900 0L870 0C840 0 780 0 720 0C660 0 600 0 540 0C480 0 420 0 360 0C300 0 240 0 180 0C120 0 60 0 30 0L0 0Z" fill="#af1de0"></path><path d="M0 241L30 226C60 211 120 181 180 176C240 171 300 191 360 200C420 209 480 207 540 213C600 219 660 233 720 235C780 237 840 227 870 222L900 217L900 95L870 96C840 97 780 99 720 98C660 97 600 93 540 90C480 87 420 85 360 82C300 79 240 75 180 83C120 91 60 111 30 121L0 131Z" fill="#7a26c5"></path><path d="M0 403L30 390C60 377 120 351 180 353C240 355 300 385 360 387C420 389 480 363 540 360C600 357 660 377 720 382C780 387 840 377 870 372L900 367L900 215L870 220C840 225 780 235 720 233C660 231 600 217 540 211C480 205 420 207 360 198C300 189 240 169 180 174C120 179 60 209 30 224L0 239Z" fill="#4824a7"></path><path d="M0 601L30 601C60 601 120 601 180 601C240 601 300 601 360 601C420 601 480 601 540 601C600 601 660 601 720 601C780 601 840 601 870 601L900 601L900 365L870 370C840 375 780 385 720 380C660 375 600 355 540 358C480 361 420 387 360 385C300 383 240 353 180 351C120 349 60 375 30 388L0 401Z" fill="#0b1e86"></path></svg>